<svg version="1" xmlns="http://www.w3.org/2000/svg" width="1365.333" height="1365.333" viewBox="0 0 1024.000000 1024.000000"><path d="M0 126.2v126.3l126-.3 126-.2.2-126 .3-126H0v126.2zM260 126v126h248V0H260v126zM516 126v126h248V127.6c0-68.4.3-125.1.6-126 .6-1.5-10.8-1.6-124-1.6H516v126zM772 126v126h252V0H772v126zM0 384.2v124.3l126-.3 126-.2V260H0v124.2zM260 384v124h248V260H260v124zM516 384v124h248V260H516v124zM772 384v124h252V260H772v124zM0 640v124h252V516H0v124zM260 640v124h248V516H260v124zM516 640v124h248V516H516v124zM772 640v124l126 .2 126 .3V516H772v124zM0 898v126h252.5l-.3-126-.2-126H0v126zM260 898v126h124.6c113.2 0 124.6-.1 124-1.6-.3-.9-.6-57.6-.6-126V772H260v126zM516 898v126h248V772H516v126zM772 898v126h252V772H772v126z"/></svg>